<svg width="214" height="177" viewBox="0 0 214 177" fill="none" xmlns="http://www.w3.org/2000/svg">
<g clip-path="url(#clip0_1059_468508)">
<path d="M24.2295 36.2571C22.9092 25.4953 30.4488 14.8053 41.8171 13.8107L158.307 3.61918C169.675 2.62458 178.956 11.8429 179.525 22.6705C180.071 33.0715 181.715 46.4628 186.054 57.1193C190.406 67.8088 196.733 74.2526 206.177 74.3255L207.062 84.4431C197.774 86.1548 192.663 93.5993 190.233 104.882C187.81 116.13 188.517 129.604 189.785 139.942C191.105 150.703 183.566 161.393 172.197 162.388L55.7075 172.579C44.3392 173.574 35.0579 164.356 34.4898 153.528C33.9433 143.127 32.2992 129.736 27.9602 119.079C23.6081 108.39 17.2677 101.947 7.82311 101.874L6.93794 91.7566C16.226 90.0449 21.3517 82.5991 23.7815 71.3163C26.2041 60.0682 25.4979 46.5949 24.2295 36.2571V36.2571Z" fill="url(#paint0_linear_1059_468508)"/>
<g filter="url(#filter0_d_1059_468508)">
<path d="M115.013 129.927C133.418 128.316 143.721 118.334 142.42 103.47C141.437 92.2349 132.812 84.7931 120.949 84.5334L120.908 84.0653C129.418 81.9056 135.491 73.2959 134.708 64.3426C133.592 51.5855 122.793 44.1566 107.445 45.4993L72.9133 48.5205L80.3011 132.964L115.013 129.927ZM87.2794 58.0547L105.145 56.4916C114.857 55.6419 120.751 59.4897 121.437 67.3313C122.17 75.6997 116.165 80.9422 104.534 81.9598L89.486 83.2763L87.2794 58.0547V58.0547ZM92.7934 121.08L90.3615 93.2834L108.107 91.7309C120.817 90.6189 127.821 94.7233 128.62 103.852C129.418 112.981 123.429 118.4 111.318 119.459L92.7934 121.08V121.08Z" fill="url(#paint1_linear_1059_468508)"/>
<path d="M115.013 129.927C133.418 128.316 143.721 118.334 142.42 103.47C141.437 92.2349 132.812 84.7931 120.949 84.5334L120.908 84.0653C129.418 81.9056 135.491 73.2959 134.708 64.3426C133.592 51.5855 122.793 44.1566 107.445 45.4993L72.9133 48.5205L80.3011 132.964L115.013 129.927ZM87.2794 58.0547L105.145 56.4916C114.857 55.6419 120.751 59.4897 121.437 67.3313C122.17 75.6997 116.165 80.9422 104.534 81.9598L89.486 83.2763L87.2794 58.0547V58.0547ZM92.7934 121.08L90.3615 93.2834L108.107 91.7309C120.817 90.6189 127.821 94.7233 128.62 103.852C129.418 112.981 123.429 118.4 111.318 119.459L92.7934 121.08V121.08Z" stroke="white" stroke-width="0.1"/>
</g>
</g>
<defs>
<filter id="filter0_d_1059_468508" x="56.8591" y="33.2936" width="101.721" height="119.724" filterUnits="userSpaceOnUse" color-interpolation-filters="sRGB">
<feFlood flood-opacity="0" result="BackgroundImageFix"/>
<feColorMatrix in="SourceAlpha" type="matrix" values="0 0 0 0 0 0 0 0 0 0 0 0 0 0 0 0 0 0 127 0" result="hardAlpha"/>
<feOffset dy="4"/>
<feGaussianBlur stdDeviation="8"/>
<feColorMatrix type="matrix" values="0 0 0 0 0 0 0 0 0 0 0 0 0 0 0 0 0 0 0.15 0"/>
<feBlend mode="normal" in2="BackgroundImageFix" result="effect1_dropShadow_1059_468508"/>
<feBlend mode="normal" in="SourceGraphic" in2="effect1_dropShadow_1059_468508" result="shape"/>
</filter>
<linearGradient id="paint0_linear_1059_468508" x1="30.4082" y1="19.0429" x2="216.6" y2="142.012" gradientUnits="userSpaceOnUse">
<stop stop-color="#9013FE"/>
<stop offset="1" stop-color="#6610F2"/>
</linearGradient>
<linearGradient id="paint1_linear_1059_468508" x1="79.4728" y1="53.5472" x2="124.147" y2="115.958" gradientUnits="userSpaceOnUse">
<stop stop-color="white"/>
<stop offset="1" stop-color="#F1E5FC"/>
</linearGradient>
<clipPath id="clip0_1059_468508">
<rect width="200" height="159.375" fill="white" transform="translate(0.435303 17.4312) rotate(-5)"/>
</clipPath>
</defs>
</svg>
