<svg width="169" height="169" viewBox="0 0 169 169" fill="none" xmlns="http://www.w3.org/2000/svg">
<path d="M82.2428 166.153L81.8842 166.142C37.0398 164.751 1.68758 127.123 3.0795 82.2653L3.09063 81.9066C4.48255 37.049 42.0997 1.68564 86.9441 3.07714L87.3027 3.08827C132.147 4.47978 167.499 42.1074 166.108 86.965L166.096 87.3237C164.704 132.181 127.087 167.545 82.2428 166.153ZM86.7728 8.59672C44.9688 7.29956 9.90613 40.2615 8.60858 82.0778L8.59745 82.4366C7.29991 124.253 40.2515 159.325 82.0555 160.622L82.4141 160.634C124.218 161.931 159.281 128.969 160.578 87.1525L160.59 86.7938C161.887 44.9774 128.935 9.90502 87.1314 8.60785L86.7728 8.59672Z" fill="#5865F2"/>
<path d="M125.128 49.6655C117.981 46.1122 110.287 43.4205 102.203 41.7663C102.055 41.7341 101.904 41.7957 101.828 41.9315C100.774 43.6778 99.5925 45.9671 98.7635 47.7646C90.0637 46.1852 81.3674 45.9154 72.763 46.9578C72.0428 45.068 70.9658 42.7529 70.0167 40.9444C69.9435 40.8095 69.7967 40.7386 69.6525 40.7563C61.4866 41.9062 53.6358 44.1156 46.2819 47.219C46.2203 47.2447 46.1638 47.2871 46.1233 47.3466C30.6956 68.9233 25.9894 90.2912 27.3116 111.581C27.3194 111.686 27.3715 111.787 27.4524 111.851C36.9588 119.3 46.2489 123.931 55.4078 127.094C55.5554 127.143 55.7116 127.092 55.8092 126.974C58.0869 124.055 60.1381 120.964 61.913 117.699C62.0183 117.509 61.9261 117.274 61.7299 117.19C58.6708 115.919 55.774 114.398 52.9881 112.687C52.766 112.548 52.7595 112.227 52.9684 112.079C53.5783 111.65 54.1886 111.205 54.7715 110.753C54.879 110.668 55.023 110.656 55.1427 110.715C73.491 119.793 93.6426 120.418 112.298 112.489C112.421 112.432 112.564 112.458 112.666 112.544C113.22 113.031 113.801 113.519 114.389 113.985C114.588 114.145 114.567 114.465 114.337 114.591C111.455 116.159 108.465 117.469 105.327 118.543C105.121 118.614 105.025 118.843 105.118 119.045C106.726 122.41 108.576 125.617 110.63 128.675C110.714 128.804 110.873 128.865 111.023 128.825C120.404 126.238 129.964 122.192 139.914 115.346C139.998 115.288 140.057 115.19 140.071 115.091C143.205 90.6245 137.521 69.111 125.267 49.8135C125.236 49.7518 125.188 49.7005 125.122 49.6709L125.128 49.6655ZM65.2404 99.8186C59.6341 99.6446 55.1808 94.3572 55.377 88.0373C55.5731 81.7174 60.2628 76.7137 65.9518 76.8902C71.6408 77.0668 76.1037 82.4042 75.8153 88.6715C75.6192 94.9914 70.9294 99.9951 65.2404 99.8186ZM103.033 100.991C97.4266 100.817 92.9733 95.5299 93.1694 89.21C93.3655 82.8901 98.0553 77.8864 103.744 78.0629C109.433 78.2395 113.896 83.5769 113.608 89.8442C113.412 96.1641 108.771 101.169 103.033 100.991Z" fill="#5865F2"/>
</svg>
