<svg width="160" height="160" viewBox="0 0 160 160" fill="none" xmlns="http://www.w3.org/2000/svg">
<path d="M80.531 0.926947L80.1722 0.924121C36.7596 0.582084 1.28942 35.5081 0.947279 78.9335L0.944451 79.2924C0.602314 122.718 35.5178 158.198 78.9304 158.54L79.2892 158.543C122.702 158.885 158.172 123.959 158.514 80.5339L158.517 80.1749C158.859 36.7495 123.944 1.26898 80.531 0.926947Z" fill="#5865F2"/>
<path d="M119.446 43.8611C112.218 40.4742 104.464 37.9611 96.3439 36.4945C96.1951 36.4657 96.0454 36.5308 95.9726 36.6683C94.9594 38.4385 93.8315 40.7546 93.0443 42.5707C84.3102 41.1931 75.61 41.1246 67.032 42.3658C66.2683 40.4932 65.138 38.2035 64.1473 36.4175C64.0711 36.2844 63.9226 36.2169 63.7789 36.2379C55.6417 37.5765 47.8442 39.967 40.5641 43.2397C40.5031 43.2668 40.4476 43.3105 40.4084 43.371C25.4841 65.2988 21.2737 86.7699 23.0882 108.023C23.0984 108.128 23.1528 108.228 23.2351 108.29C32.9113 115.517 42.3062 119.932 51.5358 122.882C51.6845 122.927 51.8394 122.873 51.9342 122.752C54.1439 119.782 56.123 116.645 57.8218 113.339C57.9227 113.147 57.8251 112.914 57.627 112.835C54.5393 111.634 51.6081 110.181 48.7834 108.535C48.5581 108.401 48.5442 108.08 48.7496 107.927C49.3494 107.485 49.9492 107.026 50.5215 106.561C50.6271 106.473 50.7707 106.458 50.8917 106.514C69.4452 115.165 89.6058 115.323 108.072 106.964C108.194 106.905 108.338 106.928 108.442 107.012C109.007 107.485 109.599 107.959 110.198 108.411C110.401 108.568 110.387 108.888 110.16 109.019C107.315 110.653 104.356 112.032 101.244 113.179C101.039 113.254 100.949 113.486 101.047 113.685C102.732 117.006 104.656 120.175 106.78 123.185C106.867 123.312 107.027 123.369 107.176 123.326C116.495 120.522 125.958 116.256 135.747 109.182C135.83 109.122 135.886 109.023 135.898 108.923C138.466 84.3908 132.285 63.0146 119.588 44.0058C119.555 43.9448 119.506 43.8948 119.44 43.8666L119.446 43.8611ZM60.7346 95.3865C55.1258 95.3423 50.5514 90.1594 50.6012 83.8366C50.651 77.5139 55.2237 72.403 60.9153 72.4479C66.6069 72.4927 71.1921 77.7254 71.0488 83.9977C70.999 90.3205 66.4261 95.4314 60.7346 95.3865ZM98.544 95.6844C92.9353 95.6402 88.3609 90.4573 88.4107 84.1345C88.4605 77.8118 93.0332 72.7009 98.7248 72.7457C104.416 72.7906 109.002 78.0233 108.858 84.2956C108.808 90.6184 104.285 95.7296 98.544 95.6844Z" fill="white"/>
</svg>
