<svg width="160" height="160" viewBox="0 0 160 160" fill="none" xmlns="http://www.w3.org/2000/svg">
<path d="M158.763 80.3186C158.45 120.122 128.695 152.795 90.3351 157.833C86.7484 158.302 83.0808 158.533 79.36 158.503C75.0651 158.469 70.8502 158.094 66.7482 157.399C29.2789 151.062 0.884189 118.3 1.19322 79.0771C1.53614 35.5522 37.0898 0.544162 80.5963 0.886939C124.103 1.22972 159.106 36.7937 158.763 80.3186Z" fill="#1877F2"/>
<path d="M91.0723 64.2508L90.937 81.4189L112.169 81.5862L108.624 104.686L90.7548 104.545L90.335 157.828C86.7484 158.296 83.0807 158.527 79.36 158.498C75.0651 158.464 70.8501 158.088 66.7482 157.393L67.166 104.359L47.585 104.205L47.7672 81.0788L67.3482 81.2331L67.5137 60.2271C67.6164 47.1951 78.2603 36.709 91.294 36.8117L91.2939 36.8228C91.3326 36.8231 91.3658 36.8123 91.4044 36.8126L112.526 36.979L112.368 56.9799L98.5669 56.8712C94.4652 56.8389 91.1102 60.1424 91.0779 64.2453L91.0723 64.2508Z" fill="white"/>
</svg>
