<svg width="160" height="160" viewBox="0 0 160 160" fill="none" xmlns="http://www.w3.org/2000/svg">
<path d="M80.8626 1.55939L80.5038 1.55657C37.0912 1.21453 1.6209 36.1405 1.27876 79.5659L1.27593 79.9249C0.933796 123.35 35.8493 158.831 79.262 159.173L79.6208 159.176C123.033 159.518 158.504 124.592 158.846 81.1663L158.849 80.8074C159.191 37.382 124.275 1.90143 80.8626 1.55939Z" fill="url(#paint0_linear_1_684)"/>
<path d="M104.811 33.8168L56.055 33.4326C42.5851 33.3265 31.5407 44.2015 31.4345 57.6753L31.083 102.294C30.9768 115.767 41.8485 126.815 55.3184 126.921L104.075 127.305C117.545 127.411 128.589 116.536 128.695 103.063L129.047 58.4444C129.153 44.9705 118.281 33.9229 104.811 33.8168ZM40.0519 57.7432C40.1206 49.0239 47.2703 41.9839 55.987 42.0526L104.744 42.4367C113.46 42.5054 120.498 49.6571 120.43 58.3765L120.078 102.995C120.009 111.714 112.86 118.754 104.143 118.685L55.3863 118.301C46.6695 118.233 39.6317 111.081 39.7004 102.361L40.0519 57.7432Z" fill="white"/>
<path d="M79.886 103.092C92.4119 103.191 102.688 93.0775 102.787 80.5424C102.886 68.0073 92.7756 57.7333 80.2442 57.6346C67.7128 57.5359 57.4417 67.6493 57.343 80.1844C57.2442 92.7195 67.3546 102.993 79.886 103.092ZM80.1762 66.2601C87.9545 66.3213 94.2311 72.6995 94.1698 80.4801C94.1085 88.2606 87.7322 94.5391 79.9539 94.4778C72.1756 94.4165 65.899 88.0384 65.9603 80.2578C66.0216 72.4772 72.3979 66.1988 80.1762 66.2601Z" fill="white"/>
<path d="M105.041 61.5024C108.414 61.5289 111.184 58.8061 111.211 55.4266C111.238 52.0471 108.516 49.281 105.137 49.2544C101.759 49.2278 98.9934 51.9506 98.9668 55.3301C98.9401 58.7097 101.662 61.4757 105.041 61.5024Z" fill="white"/>
<defs>
<linearGradient id="paint0_linear_1_684" x1="23.8581" y1="135.708" x2="136.299" y2="25.063" gradientUnits="userSpaceOnUse">
<stop stop-color="#FAAD4F"/>
<stop offset="0.35" stop-color="#DD2A7B"/>
<stop offset="0.62" stop-color="#9537B0"/>
<stop offset="1" stop-color="#515BD4"/>
</linearGradient>
</defs>
</svg>
