<svg width="160" height="160" viewBox="0 0 160 160" fill="none" xmlns="http://www.w3.org/2000/svg">
<path d="M80.7921 1.26563L80.4333 1.26281C37.0207 0.920769 1.55034 35.8468 1.2082 79.2722L1.20538 79.6311C0.863239 123.057 35.7789 158.537 79.1915 158.879L79.5503 158.882C122.963 159.224 158.433 124.298 158.775 80.8725L158.778 80.5136C159.12 37.0882 124.205 1.60767 80.7921 1.26563Z" fill="#007EBB"/>
<path d="M38.9926 53.3329C36.9321 51.3893 35.9186 48.9957 35.941 46.1573C35.9633 43.319 37.0207 40.8367 39.1061 38.9203C41.197 37.0095 43.8765 36.0641 47.1502 36.0899C50.4238 36.1157 52.9832 37.1023 55.0382 39.0458C57.0987 40.9894 58.1118 43.4217 58.0889 46.3318C58.066 49.242 57.01 51.5475 54.9246 53.4584C52.8338 55.3693 50.1929 56.3149 46.991 56.2896C43.7891 56.2644 41.0531 55.2764 38.9926 53.3329ZM56.2011 64.5243L55.7355 123.61L37.0709 123.463L37.5364 64.3773L56.2011 64.5243Z" fill="#FEFFFC"/>
<path d="M118.288 70.8506C122.321 75.3004 124.305 81.3796 124.244 89.0994L123.976 123.104L106.25 122.965L106.499 91.3564C106.53 87.4633 105.544 84.4293 103.546 82.2598C101.548 80.0903 98.8401 78.9865 95.4395 78.9598C92.0389 78.933 89.3143 79.9884 87.2823 82.1316C85.2504 84.2694 84.2163 87.2875 84.1856 91.1806L83.9366 122.789L66.1057 122.648L66.5643 64.4403L84.3952 64.5808L84.3344 72.3006C86.1598 69.7416 88.6105 67.7286 91.6806 66.2562C94.7507 64.7838 98.1958 64.0655 102.021 64.0956C108.834 64.1493 114.259 66.401 118.288 70.8506Z" fill="#FEFFFC"/>
</svg>
